<?xml version="1.0" ?><!DOCTYPE svg  PUBLIC '-//W3C//DTD SVG 1.1//EN'  'http://www.w3.org/Graphics/SVG/1.1/DTD/svg11.dtd'><svg height="100%" style="fill-rule:evenodd;clip-rule:evenodd;stroke-linejoin:round;stroke-miterlimit:2;" version="1.1" viewBox="0 0 32 32" width="100%" xml:space="preserve" xmlns="http://www.w3.org/2000/svg" xmlns:serif="http://www.serif.com/" xmlns:xlink="http://www.w3.org/1999/xlink"><path d="M19.777,4.829l-3.1,6.671l-4.549,0l-0.784,-2.736c1.369,-0.421 2.566,-0.79 2.567,-0.79c0.262,-0.089 0.402,-0.373 0.314,-0.634c-0.682,-2.014 -2.799,-3.173 -4.769,-2.646c-2.057,0.552 -3.271,2.758 -2.688,4.935c0.071,0.267 0.345,0.425 0.611,0.354c0.003,-0 1.468,-0.451 3.009,-0.925l0.7,2.442l-3.337,0c-0.178,-0 -0.334,0.093 -0.423,0.233l-2.501,4.003c-0.048,0.076 -0.076,0.167 -0.076,0.264c0,1.834 0.508,3.683 1.378,5.213c-0.334,0.068 -0.688,0.173 -1.063,0.322c-0.237,0.095 -0.365,0.354 -0.296,0.6c0.411,1.466 1.042,2.35 1.736,2.865l-0.505,0c-0.829,0 -1.5,0.671 -1.5,1.499l-0.001,1.001c-0,0.132 0.053,0.26 0.146,0.353c0.094,0.094 0.221,0.147 0.354,0.147l19.251,-0c0,0 0.5,-0.044 0.5,-0.514c0,-0.086 0,-0.536 0,-0.986c0,-0.828 -0.671,-1.5 -1.5,-1.5l-4.139,0c3.337,-1.621 5.639,-5.044 5.639,-9c0,-0.097 -0.028,-0.188 -0.076,-0.264l-2.5,-4.001c-0.094,-0.151 -0.256,-0.234 -0.422,-0.235l-1.977,0l2.045,-4.5l4.179,0.001c0.398,-0 0.779,-0.158 1.061,-0.44c0.281,-0.281 0.439,-0.662 0.439,-1.06l0,-0.001c0,-0.398 -0.158,-0.779 -0.439,-1.061c-0.282,-0.281 -0.663,-0.439 -1.061,-0.439l-4.882,-0c-0.568,-0 -1.087,0.321 -1.341,0.829Zm3.974,22.171l-18.251,0l0.001,-0.5c-0,-0.276 0.224,-0.5 0.5,-0.5c-0,0 17.25,0 17.25,0c0.276,0 0.5,0.224 0.5,0.5l0,0.5Zm-0.002,-10.821c-0.065,-0.049 -0.155,-0.081 -0.255,-0.109c-0.242,-0.07 -0.543,-0.09 -0.878,-0.075c-1.11,0.05 -2.556,0.494 -3.591,1.173c-0.995,0.653 -2.425,0.977 -3.836,0.97c-1.417,-0.007 -2.808,-0.35 -3.721,-0.976c-0.618,-0.424 -1.701,-0.596 -2.771,-0.677c-1.16,-0.088 -2.313,-0.051 -2.934,-0.017c0.086,1.667 0.621,3.319 1.476,4.648c0.439,0.016 0.835,0.1 1.192,0.228c1.433,0.515 2.233,1.79 2.581,2.5c0.507,-0.924 1.881,-2.771 4.416,-1.81c0.246,0.093 0.377,0.36 0.302,0.612c-0.382,1.265 -0.989,1.961 -1.628,2.331c0.214,0.015 0.431,0.023 0.649,0.023c4.908,0 8.903,-3.937 8.998,-8.821Zm-13.634,8.091c-0.556,0.259 -1.504,0.563 -2.414,0.245c-0.715,-0.249 -1.375,-0.895 -1.829,-2.204c0.893,-0.275 1.626,-0.24 2.22,-0.026c1.133,0.407 1.756,1.424 2.023,1.985l0,0Zm1.81,-0.026c0.356,-0.637 1.197,-1.724 2.68,-1.414c-0.322,0.781 -0.759,1.201 -1.227,1.39c-0.53,0.215 -1.076,0.14 -1.453,0.024Zm9.549,-11.744l-13.446,-0l-1.843,2.949c0.893,-0.032 2.258,-0.037 3.487,0.134c0.942,0.131 1.805,0.372 2.362,0.755c0.774,0.53 1.96,0.794 3.16,0.8c1.206,0.006 2.433,-0.248 3.283,-0.806c1.328,-0.872 3.249,-1.396 4.557,-1.336l-1.56,-2.496Zm-0.421,-6.224c0.083,-0.163 0.252,-0.276 0.448,-0.276c-0,0 4.499,0.001 4.499,0.001c0.133,-0 0.26,-0.053 0.354,-0.147c0.093,-0.093 0.146,-0.221 0.146,-0.353l0,-0.001c0,-0.133 -0.053,-0.26 -0.146,-0.354c-0.094,-0.093 -0.221,-0.146 -0.354,-0.146l-4.882,-0c-0.189,-0 -0.362,0.107 -0.447,0.276l-2.895,6.223c-0,-0 0.902,-0 0.902,-0c0,-0 2.372,-5.218 2.375,-5.223Zm-7.981,0.91c-0.651,-1.214 -2.043,-1.878 -3.357,-1.526c-1.378,0.37 -2.227,1.745 -2.076,3.199l5.433,-1.673Z" id="Cocktail"/></svg>